<svg width="703" height="616" viewBox="0 0 703 616" fill="none" xmlns="http://www.w3.org/2000/svg">
<g clip-path="url(#clip0_11120_34646)">
<path d="M134.291 270.624C142.62 288.893 147.301 306.186 141.168 313.898C140.804 314.354 140.407 314.77 139.982 315.152C135.255 319.339 125.967 319.43 110.279 313.202C68.53 296.627 66.5498 268.017 58.107 240.08C49.7833 212.492 20.7101 217.157 19.9668 217.277C87.7192 193.555 120.163 239.647 134.291 270.624Z" fill="#263238"/>
<path d="M141.168 313.898C140.804 314.354 140.407 314.77 139.982 315.153C132.14 310.407 117.127 300.334 110.046 289.035C106.704 283.702 103.901 277.702 100.922 271.36C95.3051 259.359 89.4837 246.948 79.333 237.428L80.4678 236.202C90.8511 245.944 96.735 258.503 102.426 270.652C105.376 276.955 108.162 282.904 111.453 288.146C118.353 299.165 133.525 309.272 141.168 313.898Z" fill="#494B4F"/>
<path d="M127.039 278.09C126.546 279.305 126.228 279.995 126.194 280.069C126.063 279.396 125.939 278.734 125.814 278.09C120.242 249.406 112.798 246.411 90.4652 221.315C67.6277 195.654 80.7628 171.744 80.7628 171.744C157.27 193.966 132.237 265.268 127.039 278.09Z" fill="#263238"/>
<path d="M127.039 278.09C126.546 279.305 126.228 279.995 126.194 280.069C126.063 279.396 125.939 278.734 125.814 278.09C128.293 253.29 113.41 224.196 108.735 218.971C103.895 213.564 100.916 206.126 99.7874 203.326C99.6001 202.864 99.4186 202.419 99.3618 202.316L100.44 201.706C100.536 201.871 100.655 202.185 100.933 202.864C102.034 205.607 104.962 212.896 109.654 218.132C115.584 224.754 129.314 253.992 127.039 278.09Z" fill="#494B4F"/>
<path d="M650.806 156.698L644.979 147.11C644.502 146.323 644.746 145.296 645.529 144.817C646.312 144.338 647.333 144.583 647.81 145.37L651.929 152.152L662.886 145.633C663.674 145.165 664.69 145.427 665.161 146.22C665.626 147.013 665.365 148.034 664.577 148.507L650.806 156.698Z" fill="#F9BD87"/>
<path d="M654.715 171.482C643.163 171.482 633.761 162.031 633.761 150.418C633.761 138.805 643.163 129.354 654.715 129.354C666.267 129.354 675.669 138.805 675.669 150.418C675.675 162.031 666.273 171.482 654.715 171.482ZM654.715 132.36C644.814 132.36 636.751 140.459 636.751 150.418C636.751 160.377 644.808 168.476 654.715 168.476C664.622 168.476 672.679 160.377 672.679 150.418C672.679 140.459 664.622 132.36 654.715 132.36Z" fill="#F9BD87"/>
<path d="M523.931 94.8755L514.994 80.1657C514.262 78.9622 514.642 77.3823 515.84 76.6465C517.037 75.9107 518.608 76.2929 519.34 77.4963L525.661 87.8999L542.462 77.9013C543.67 77.1826 545.236 77.5819 545.951 78.8025C546.666 80.0174 546.269 81.5859 545.055 82.3103L523.931 94.8755Z" fill="#F9BD87"/>
<path d="M529.934 117.553C512.208 117.553 497.791 103.06 497.791 85.2419C497.791 67.4235 512.208 52.9304 529.934 52.9304C547.659 52.9304 562.077 67.4235 562.077 85.2419C562.077 103.06 547.659 117.553 529.934 117.553ZM529.934 57.5447C514.739 57.5447 502.381 69.9674 502.381 85.2419C502.381 100.516 514.739 112.939 529.934 112.939C545.129 112.939 557.486 100.516 557.486 85.2419C557.486 69.9731 545.129 57.5447 529.934 57.5447Z" fill="#F9BD87"/>
<path d="M398.906 99.2332L392.999 89.5141C392.517 88.7156 392.767 87.6775 393.555 87.187C394.35 86.7021 395.382 86.9531 395.87 87.7459L400.046 94.6189L411.15 88.014C411.95 87.5406 412.983 87.803 413.454 88.6072C413.925 89.4114 413.664 90.4495 412.864 90.9229L398.906 99.2332Z" fill="#F9BD87"/>
<path d="M402.872 114.217C391.161 114.217 381.634 104.64 381.634 92.8678C381.634 81.0953 391.161 71.5188 402.872 71.5188C414.583 71.5188 424.109 81.0953 424.109 92.8678C424.109 104.64 414.583 114.217 402.872 114.217ZM402.872 74.5646C392.835 74.5646 384.664 82.7722 384.664 92.8678C384.664 102.958 392.829 111.171 402.872 111.171C412.909 111.171 421.079 102.963 421.079 92.8678C421.074 82.7779 412.909 74.5646 402.872 74.5646Z" fill="#F9BD87"/>
<path d="M300.123 63.2198L292.73 51.0481C292.123 50.0499 292.435 48.7495 293.428 48.1392C294.421 47.5289 295.714 47.8426 296.321 48.8407L301.547 57.4476L315.448 49.1773C316.447 48.5841 317.741 48.9149 318.331 49.9187C318.921 50.9226 318.592 52.223 317.593 52.8162L300.123 63.2198Z" fill="#F9BD87"/>
<path d="M305.088 81.9737C290.426 81.9737 278.5 69.9845 278.5 55.2461C278.5 40.5077 290.426 28.5186 305.088 28.5186C319.749 28.5186 331.676 40.5077 331.676 55.2461C331.676 69.9845 319.749 81.9737 305.088 81.9737ZM305.088 32.3343C292.52 32.3343 282.295 42.6124 282.295 55.2461C282.295 67.8798 292.52 78.1579 305.088 78.1579C317.655 78.1579 327.88 67.8798 327.88 55.2461C327.88 42.6124 317.655 32.3343 305.088 32.3343Z" fill="#F9BD87"/>
<path d="M176.465 109.3L168.266 95.8108C167.591 94.7043 167.943 93.2613 169.044 92.5826C170.144 91.9095 171.58 92.2574 172.255 93.364L178.054 102.906L193.464 93.7404C194.576 93.0788 196.006 93.4495 196.664 94.5674C197.323 95.6854 196.954 97.1227 195.842 97.7843L176.465 109.3Z" fill="#F9BD87"/>
<path d="M181.969 130.096C165.713 130.096 152.493 116.8 152.493 100.465C152.493 84.1239 165.719 70.8342 181.969 70.8342C198.225 70.8342 211.445 84.1296 211.445 100.465C211.445 116.806 198.225 130.096 181.969 130.096ZM181.969 75.0664C168.039 75.0664 156.703 86.4624 156.703 100.465C156.703 114.468 168.039 125.864 181.969 125.864C195.898 125.864 207.235 114.468 207.235 100.465C207.235 86.4624 195.898 75.0664 181.969 75.0664Z" fill="#F9BD87"/>
<path d="M142.041 418.235H487.408C493.643 418.235 498.693 413.153 498.693 406.891V160.719C498.693 154.451 493.638 149.374 487.408 149.374H142.041C135.806 149.374 130.756 154.456 130.756 160.719V406.891C130.756 413.159 135.806 418.235 142.041 418.235Z" fill="#F1F1F1" stroke="#263238" stroke-width="0.5" stroke-miterlimit="10"/>
<path d="M130.756 181.845H498.693V160.719C498.693 154.451 493.638 149.374 487.408 149.374H142.041C135.806 149.374 130.756 154.456 130.756 160.719V181.845Z" fill="#F9BD87" stroke="black" stroke-width="0.25" stroke-miterlimit="10"/>
<path d="M350.348 294.996H157.713V301.652H350.348V294.996Z" fill="#E6E6E6"/>
<path d="M300.588 306.985H157.713V313.641H300.588V306.985Z" fill="#E6E6E6"/>
<path d="M248.309 333.034H157.713V339.69H248.309V333.034Z" fill="#E6E6E6"/>
<path d="M320.475 345.023H157.713V351.679H320.475V345.023Z" fill="#E6E6E6"/>
<path d="M310.188 373.667H157.713V380.323H310.188V373.667Z" fill="#E6E6E6"/>
<path d="M343.897 385.656H157.713V392.312H343.897V385.656Z" fill="#E6E6E6"/>
<path d="M153.151 294.996H148.311V313.641H153.151V294.996Z" fill="#E6E6E6"/>
<path d="M153.151 333.034H148.311V351.679H153.151V333.034Z" fill="#E6E6E6"/>
<path d="M153.151 373.667H148.311V392.312H153.151V373.667Z" fill="#E6E6E6"/>
<path d="M410.362 400.708H402.861C397.607 400.708 393.346 396.425 393.346 391.143V383.603C393.346 378.321 397.607 374.038 402.861 374.038H410.362C415.616 374.038 419.877 378.321 419.877 383.603V391.143C419.877 396.425 415.616 400.708 410.362 400.708Z" fill="#F9BD87"/>
<path d="M405.771 393.248L399.065 387.367C398.515 386.882 398.458 386.044 398.934 385.491C399.417 384.937 400.251 384.88 400.801 385.36L405.545 389.518L412.308 381.932C412.796 381.384 413.63 381.338 414.175 381.829C414.719 382.319 414.765 383.158 414.277 383.705L405.771 393.248Z" fill="#263238"/>
<path d="M413.845 360.086H399.382C396.046 360.086 393.334 357.36 393.334 354.006V339.467C393.334 336.114 396.046 333.387 399.382 333.387H413.845C417.182 333.387 419.894 336.114 419.894 339.467V354.006C419.888 357.36 417.182 360.086 413.845 360.086ZM399.377 335.081C396.971 335.081 395.013 337.049 395.013 339.467V354.006C395.013 356.424 396.971 358.392 399.377 358.392H413.84C416.245 358.392 418.203 356.424 418.203 354.006V339.467C418.203 337.049 416.245 335.081 413.84 335.081H399.377Z" fill="#F9BD87"/>
<path d="M453.795 400.72H439.333C435.996 400.72 433.284 397.993 433.284 394.639V380.101C433.284 376.747 435.996 374.021 439.333 374.021H453.795C457.132 374.021 459.838 376.747 459.838 380.101V394.639C459.838 397.993 457.126 400.72 453.795 400.72ZM439.327 375.714C436.921 375.714 434.964 377.682 434.964 380.101V394.639C434.964 397.058 436.921 399.026 439.327 399.026H453.79C456.196 399.026 458.153 397.058 458.153 394.639V380.101C458.153 377.682 456.196 375.714 453.79 375.714H439.327Z" fill="#F9BD87"/>
<path d="M450.312 360.075H442.811C437.557 360.075 433.295 355.791 433.295 350.51V342.969C433.295 337.688 437.557 333.404 442.811 333.404H450.312C455.566 333.404 459.827 337.688 459.827 342.969V350.51C459.827 355.791 455.566 360.075 450.312 360.075Z" fill="#F9BD87"/>
<path d="M445.721 352.614L439.015 346.734C438.464 346.249 438.407 345.411 438.884 344.857C439.366 344.304 440.2 344.247 440.751 344.726L445.494 348.884L452.258 341.298C452.746 340.751 453.58 340.705 454.124 341.196C454.669 341.686 454.714 342.525 454.226 343.072L445.721 352.614Z" fill="#263238"/>
<path d="M453.795 319.453H439.333C435.996 319.453 433.284 316.727 433.284 313.373V298.834C433.284 295.481 435.996 292.754 439.333 292.754H453.795C457.132 292.754 459.838 295.481 459.838 298.834V313.373C459.838 316.727 457.126 319.453 453.795 319.453ZM439.327 294.448C436.921 294.448 434.964 296.416 434.964 298.834V313.373C434.964 315.791 436.921 317.759 439.327 317.759H453.79C456.196 317.759 458.153 315.791 458.153 313.373V298.834C458.153 296.416 456.196 294.448 453.79 294.448H439.327Z" fill="#F9BD87"/>
<path d="M410.362 319.442H402.861C397.607 319.442 393.346 315.158 393.346 309.876V302.331C393.346 297.049 397.607 292.765 402.861 292.765H410.362C415.616 292.765 419.877 297.049 419.877 302.331V309.871C419.877 315.158 415.616 319.442 410.362 319.442Z" fill="#F9BD87"/>
<path d="M405.771 311.981L399.065 306.101C398.515 305.616 398.458 304.777 398.934 304.224C399.417 303.671 400.251 303.614 400.801 304.093L405.545 308.251L412.308 300.665C412.796 300.117 413.63 300.072 414.175 300.562C414.719 301.053 414.765 301.891 414.277 302.439L405.771 311.981Z" fill="#263238"/>
<path d="M465.262 234.93C465.262 244.558 461.818 253.376 456.099 260.209C448.944 268.759 438.209 274.223 426.169 274.223C413.76 274.223 402.469 268.371 395.235 258.954C390.123 252.309 387.076 243.976 387.076 234.93C387.076 213.227 404.58 195.631 426.169 195.631C447.758 195.631 465.262 213.227 465.262 234.93Z" fill="#EEF0F7" stroke="black" stroke-width="0.5" stroke-miterlimit="10"/>
<path d="M454.13 255.999C453.988 255.857 453.659 255.737 453.472 255.612C453.46 255.6 453.449 255.594 453.438 255.589V255.594C451.724 254.642 446.691 252.132 436.773 249.269H436.768C434.969 248.716 433.607 248.356 433.142 248.237L432.302 246.891C432.166 245.533 432.195 243.514 432.234 242.162C433.63 240.531 434.89 237.987 435.599 234.012C435.826 234.183 436.002 233.812 436.002 233.812C435.877 233.59 437.891 228.65 437.528 227.538C437.324 226.905 436.904 226.985 436.581 227.167C436.632 226.876 436.677 226.58 436.728 226.26C436.728 226.26 437.528 218.692 433.715 214.471C433.324 214.089 431.917 213.997 431.917 213.997C425.794 212.115 422.123 212.954 419.825 213.946C416.415 216.752 416.16 221.532 416.313 224.161C416.381 224.783 416.449 225.41 416.523 226.021C416.523 226.032 416.529 226.038 416.529 226.038C416.557 226.283 416.586 226.517 416.614 226.757C416.296 226.557 415.876 226.46 415.649 227.082C415.241 228.177 416.727 233.111 416.915 233.413C416.915 233.413 417.232 233.92 417.488 233.687C417.488 233.687 417.488 233.675 417.493 233.675C418.197 238.004 419.462 240.679 420.796 242.328C420.699 244.084 420.444 246.155 420.268 247.472L418.753 249.064C418.674 249.092 418.594 249.115 418.515 249.144C418.515 249.138 418.515 249.132 418.515 249.132C401.402 253.724 396.568 256.918 396.568 256.918C396.137 257.186 395.7 257.893 395.257 258.954C402.401 268.257 413.641 274.223 426.192 274.223C438.254 274.223 448.978 268.742 456.122 260.209C455.361 258.406 454.834 256.707 454.13 255.999Z" fill="#FFF9E2" stroke="#263238" stroke-width="0.25" stroke-miterlimit="10"/>
<path d="M151.54 203.965H150.842V270.373H151.54V203.965Z" fill="#E0E0E0"/>
<path d="M201.317 203.965H200.619V270.373H201.317V203.965Z" fill="#E0E0E0"/>
<path d="M251.094 203.965H250.396V270.373H251.094V203.965Z" fill="#E0E0E0"/>
<path d="M300.866 203.965H300.168V270.373H300.866V203.965Z" fill="#E0E0E0"/>
<path d="M350.644 203.965H349.946V270.373H350.644V203.965Z" fill="#E0E0E0"/>
<path d="M159.114 274.303H151.193V276.613H159.114V274.303Z" fill="#B8B8B8"/>
<path d="M163.114 195.78H151.193V197.508H163.114V195.78Z" fill="#D9D9D9"/>
<path d="M168.107 198.979H151.193V200.708H168.107V198.979Z" fill="#D9D9D9"/>
<path d="M214.43 195.78H200.432V197.508H214.43V195.78Z" fill="#D9D9D9"/>
<path d="M209.38 198.979H200.432V200.708H209.38V198.979Z" fill="#D9D9D9"/>
<path d="M259.77 195.78H251.095V197.508H259.77V195.78Z" fill="#D9D9D9"/>
<path d="M261.206 198.979H251.095V200.708H261.206V198.979Z" fill="#D9D9D9"/>
<path d="M313.508 195.78H300.872V197.508H313.508V195.78Z" fill="#D9D9D9"/>
<path d="M310.983 198.979H300.872V200.708H310.983V198.979Z" fill="#D9D9D9"/>
<path d="M357.844 195.78H350.297V197.508H357.844V195.78Z" fill="#D9D9D9"/>
<path d="M356.334 198.979H350.297V200.708H356.334V198.979Z" fill="#D9D9D9"/>
<path d="M208.892 274.303H200.971V276.613H208.892V274.303Z" fill="#B8B8B8"/>
<path d="M259.016 274.303H251.095V276.613H259.016V274.303Z" fill="#B8B8B8"/>
<path d="M308.793 274.303H300.872V276.613H308.793V274.303Z" fill="#B8B8B8"/>
<path d="M358.57 274.303H350.649V276.613H358.57V274.303Z" fill="#B8B8B8"/>
<path d="M333.048 250.638C317.525 250.638 304.026 244.569 289.955 238.244C272.587 230.435 254.623 222.359 230.691 224.572C215.411 225.987 205.816 231.61 197.356 236.573C189.697 241.067 182.451 245.02 172.641 245.356C156.782 245.904 151.284 239.79 151.193 239.413V235.489C151.216 235.557 154.677 242.419 172.624 242.339C181.464 242.299 187.989 238.472 195.541 234.04C204.318 228.89 214.27 223.055 230.35 221.566C255.242 219.268 273.642 227.538 291.436 235.54C310.058 243.913 327.823 251.762 350.292 244.951V248.18C343.891 250.125 338.773 250.638 333.048 250.638Z" fill="#F9BD87"/>
<path d="M239.855 249.891C228.393 249.891 219.304 242.921 210.407 236.099C203.66 230.926 196.659 225.639 188.579 223.032C163.92 215.07 151.301 229.608 151.188 229.734V225.313C151.318 225.165 153.571 222.519 160.085 219.998C166.014 217.699 175.96 215.868 189.674 220.18C198.367 222.912 205.584 228.445 212.563 233.795C226.725 244.649 238.952 254.02 260.19 239.339C276.275 228.217 291.436 217.619 306.359 213.746C320.952 209.959 336.164 212.731 350.405 225.604L350.298 229.62C320.05 202.151 294.296 219.553 262.215 241.729C253.722 247.615 246.402 249.891 239.855 249.891Z" fill="#FCDEC3"/>
<path d="M389.357 356.841C389.357 356.841 392.262 347.424 393.907 346.409C395.559 345.393 402.43 341.988 402.844 342.912C403.252 343.83 399.133 348.308 398.214 349.797C397.3 351.291 396.841 352.762 397.482 352.118C398.123 351.473 401.601 349.317 401.97 349.797C402.339 350.276 400.228 352.118 399.224 353.59C398.214 355.061 397.119 357.548 393.544 358.101C389.97 358.654 389.357 356.841 389.357 356.841Z" fill="#FFF9E2" stroke="#263238" stroke-width="0.25" stroke-miterlimit="10"/>
<path d="M283.504 436.134C283.504 436.134 284.372 444.643 285.331 446.252C286.284 447.86 290.352 453.005 292.083 454.015C293.813 455.024 291.028 447.239 291.379 445.727C291.731 444.21 292.803 448.493 293.569 448.59C294.335 448.693 294.137 444.837 294.165 443.44C294.194 442.037 290.449 438.58 289.132 435.592C287.81 432.603 283.504 436.134 283.504 436.134Z" fill="#FFF9E2" stroke="#263238" stroke-width="0.25" stroke-miterlimit="10"/>
<path d="M310.041 348.85C310.041 348.85 317.077 383.568 355.801 394.913C367.887 398.455 395.349 358.449 395.349 358.449C395.349 358.449 394.384 354.759 388.336 355.609C388.336 355.609 361.6 373.404 358.23 375.338C355.245 377.055 335.602 353.287 326.649 349.454C317.695 345.621 310.041 348.85 310.041 348.85Z" fill="#F9BD87" stroke="#263238" stroke-width="0.25" stroke-miterlimit="10"/>
<path d="M263.815 567.097C263.815 567.097 259.01 571.505 259.951 574.637C260.888 577.768 265.223 579.856 265.807 583.683C266.391 587.51 268.735 589.598 270.845 589.598C272.956 589.598 280.9 589.598 280.9 589.598C280.9 589.598 282.454 586.905 278.704 586.096C274.953 585.286 273.541 580.785 273.773 576.61C274.006 572.435 273.421 566.868 273.421 566.868L265.455 565.015L263.815 567.097Z" fill="#263238"/>
<path d="M322.745 578.492C322.745 578.492 321.882 588.52 323.993 589.563L350.984 589.506C350.984 589.506 350.984 586.375 346.649 585.679C342.314 584.983 334.7 582.434 333.412 576.747C332.118 571.072 322.745 578.492 322.745 578.492Z" fill="#263238"/>
<path d="M345.532 436.824C345.532 436.824 344.107 454.403 342.434 475.535C340.158 504.242 337.424 539.502 337.157 546.181C336.692 557.782 334.814 576.337 334.814 576.337C334.814 576.337 330.365 580.745 321.457 578.886C321.457 578.886 313.519 552.398 311.255 524.376C311.221 523.914 311.187 523.452 311.148 522.99C309.037 494.46 305.757 434.388 305.757 434.388L345.532 436.824Z" fill="#263238"/>
<path d="M339.035 438.911C339.035 438.911 313.377 502.576 296.503 532.498C279.634 562.419 274.358 570.77 274.358 570.77C274.358 570.77 264.689 566.942 263.815 564.336C263.815 564.336 270.267 506.574 281.563 492.492C287.947 484.535 295.448 460.66 295.799 452.309C296.151 443.959 298.086 427.436 298.086 427.436L339.035 438.911Z" fill="#494B4F"/>
<path d="M313.894 325.094C313.894 325.094 318.28 333.136 326.637 335.383C327.063 331.956 327.063 330.011 327.063 330.011L320.368 324.718L313.894 325.094Z" fill="#FFF1C5"/>
<path d="M325.865 340.642C326.212 338.623 326.484 336.872 326.637 335.384C327.023 332.275 327.057 330.393 327.063 330.068C328.884 329.982 330.115 329.777 330.115 329.777C334.382 328.807 333.644 311.325 332.288 308.034C330.932 304.743 328.277 301.144 317.769 303.317C307.261 305.49 310.444 312.033 311.998 322.265C312.225 323.771 312.787 324.991 313.564 325.984C311.76 335.942 305.269 340.791 305.269 340.791C305.269 340.791 322.631 349.209 332.64 346.089C332.64 346.089 330.178 342.969 325.865 340.642Z" fill="#FFF9E2" stroke="#263238" stroke-width="0.25" stroke-miterlimit="10"/>
<path d="M305.978 302.097C305.825 301.925 305.479 301.783 304.708 301.743C304.708 301.743 305.326 301.355 306.149 301.332C306.308 300.254 306.881 298.344 308.73 297.882C308.73 297.882 307.737 298.412 307.607 299.558C309.746 297.351 314.33 295.743 327.023 296.752C343.75 298.081 338.24 308.844 336.073 310.127C333.906 311.411 328.459 307.892 324.419 308.217C320.385 308.536 319.619 314.399 318.246 315.204C316.878 316.008 317.417 314.588 315.562 313.744C313.712 312.899 313.536 315.985 314.07 317.993C314.603 320 312.061 322.647 312.061 322.647C312.061 322.647 312.061 322.647 309.491 319.864C306.92 317.08 304.498 305.291 305.666 302.775C305.769 302.547 305.871 302.319 305.978 302.097Z" fill="#263238"/>
<path d="M346.899 412.708C346.899 412.138 346.899 411.568 346.859 410.997V410.809C346.78 405.282 346.592 399.493 346.32 393.698C345.781 380.973 344.777 368.704 343.086 361.923C341.049 353.92 336.425 348.627 332.232 344.777L328.771 341.732C325.304 342.416 321.65 342.228 317.99 340.437C314.03 338.515 309.774 336.45 309.014 336.918C309.003 336.872 308.991 336.844 308.991 336.844C308.991 336.844 298.511 341.834 293.49 349.5C285.694 361.392 276.661 404.746 276.497 408.761C276.332 412.777 283.09 441.119 283.09 441.119C283.09 441.119 289.944 440.662 291.714 437.183C291.714 437.183 290.347 408.066 291.215 406.189C291.464 405.647 296.821 383.038 300.157 378.161C300.395 387.675 297.127 415.178 296.724 421.367C296.628 422.901 296.526 424.304 296.435 425.553C296.282 427.761 296.162 429.477 296.128 430.698C296.089 431.765 298.358 432.985 299.363 433.441C306.79 436.721 313.718 439.003 321.576 439.767C330.853 440.719 341.826 438.62 345.599 438.7C345.985 438.7 346.331 438.546 346.638 438.278C346.899 438.084 347.092 426.842 346.899 412.708Z" fill="#F9BD87" stroke="#263238" stroke-width="0.25" stroke-miterlimit="10"/>
<path d="M601.778 485.79C602.407 470.179 603.769 456.604 605.398 447.136C607.996 432.044 610.334 423.357 610.357 423.266C610.697 421.937 615.639 416.57 626.63 416.735C637.614 416.901 636.576 423.945 636.576 423.945C636.576 424.184 636.548 424.407 636.497 424.572C636.389 424.937 626.306 461.698 626.743 509.158C626.749 509.826 626.822 510.978 626.777 511.742C626.777 511.748 601.318 512.404 601.312 511.742C600.422 507.59 600.859 496.091 601.778 485.79Z" fill="#F9BD87"/>
<path d="M598.578 508.919C598.583 509.58 598.935 510.111 599.355 510.111H599.366C599.792 510.099 600.127 509.569 600.132 508.919H621.954C621.96 509.58 622.312 510.111 622.732 510.111H622.743C623.174 510.099 623.515 509.552 623.509 508.884C623.384 495.298 624.156 482.613 625.319 471.417C628.218 443.491 633.58 424.829 633.66 424.572C633.705 424.407 633.739 424.184 633.739 423.945C633.739 423.945 634.783 416.901 623.793 416.735C612.802 416.57 607.86 421.943 607.52 423.266C607.497 423.335 606.175 428.251 604.416 437.092C603.832 440.018 603.202 443.377 602.555 447.136C600.927 456.604 599.565 470.185 598.935 485.79C598.016 496.091 597.693 504.766 598.578 508.919Z" fill="#FCDEC3"/>
<path d="M625.12 510.105H539.58C539.58 510.105 541.572 502 591.116 503.209C626.17 504.065 625.12 510.105 625.12 510.105Z" fill="#FCDEC3"/>
<path d="M632.088 594.754C622.17 544.282 624.717 513.305 624.734 512.917C624.757 512.141 623.333 511.434 622.567 511.411C621.79 511.4 618.368 511.183 617.971 511.845C617.455 512.717 615.452 550.875 630.238 594.754H632.088Z" fill="#F9BD87"/>
<path d="M552.216 594.754C562.134 544.282 559.586 513.305 559.569 512.917C559.547 512.141 560.971 511.434 561.737 511.411C562.514 511.4 565.935 511.183 566.333 511.845C566.849 512.717 568.852 550.875 554.066 594.754H552.216Z" fill="#F9BD87"/>
<path d="M536.385 594.754C546.303 544.282 543.756 513.305 543.739 512.917C543.716 512.141 545.14 511.434 545.906 511.411C546.683 511.4 550.105 511.183 550.502 511.845C551.018 512.717 553.016 550.875 538.235 594.754H536.385Z" fill="#F9BD87"/>
<path d="M616.15 594.754C606.232 544.282 608.779 513.305 608.796 512.917C608.819 512.141 607.395 511.434 606.629 511.411C605.852 511.4 602.43 511.183 602.033 511.845C601.517 512.717 599.514 550.875 614.3 594.754H616.15Z" fill="#F9BD87"/>
<path d="M540.102 512.694H624.496C625.778 512.694 626.822 511.639 626.822 510.356C626.822 509.067 625.772 508.017 624.496 508.017H540.102C538.819 508.017 537.775 509.073 537.775 510.356C537.775 511.639 538.819 512.694 540.102 512.694Z" fill="#F9BD87"/>
<path d="M542.53 435.033L514.093 428.844L512.419 432.945C512.419 432.945 543.796 451.71 546.735 450.792C549.674 449.874 542.53 435.033 542.53 435.033Z" fill="#FFB27D"/>
<path d="M568.386 564.313C569.101 565.134 569.192 566.053 568.835 567.028C568.835 567.034 568.835 567.039 568.829 567.039C568.176 568.847 566.026 570.872 563.524 572.891C563.206 573.154 562.922 573.388 562.673 573.604C562.61 573.661 562.542 573.718 562.48 573.775C562.429 573.821 562.383 573.867 562.332 573.907C560 576.068 560.88 576.565 556.687 580.951C551.909 585.947 548.618 586.038 547.682 585.582C546.888 585.194 548.499 582.542 550.281 579.565C550.366 579.422 550.451 579.274 550.542 579.131C550.78 578.738 551.013 578.333 551.251 577.933C553.339 574.346 552.806 572.663 552.306 567.33C551.904 562.995 545.594 543.107 545.594 543.107L554.752 541.521C554.752 541.521 557.509 557.36 560.551 559.796C562.173 561.096 563.995 561.113 565.555 562.077C565.663 562.146 565.776 562.214 565.879 562.282C566.764 562.881 567.671 563.492 568.386 564.313Z" fill="#FFF9E2" stroke="black" stroke-width="0.5" stroke-miterlimit="10"/>
<path d="M568.386 564.313C569.101 565.134 569.192 566.053 568.834 567.028C568.834 567.034 568.835 567.039 568.829 567.039C568.029 568.847 565.929 570.861 563.512 572.874C563.195 573.137 562.917 573.382 562.667 573.604C562.605 573.661 562.536 573.718 562.474 573.775C562.423 573.821 562.378 573.867 562.327 573.907C559.995 576.068 560.874 576.565 556.681 580.951C551.903 585.947 548.613 586.038 547.676 585.582C546.882 585.194 548.493 582.542 550.275 579.565C551.206 579.222 555.523 577.46 558.792 573.256C561.668 569.566 563.586 564.821 565.549 562.077C565.657 562.146 565.771 562.214 565.873 562.282C566.764 562.881 567.671 563.492 568.386 564.313Z" fill="#F9BD87" stroke="black" stroke-width="0.25" stroke-miterlimit="10"/>
<path d="M494.546 558.564C493.979 561.404 489.95 560.931 485.451 559.824C480.951 558.718 482.018 560.035 475.612 559.322C469.206 558.609 467.266 556.208 467.067 555.25C466.891 554.4 470.057 554.098 473.456 553.71C473.881 553.664 474.313 553.607 474.738 553.556C478.574 553.071 481.377 550.584 484.86 548.542C488.157 546.609 493.082 538.726 493.082 538.726L501.865 539.428C501.865 539.428 497.252 546.466 495.471 549.529C494.421 551.331 494.478 553.71 494.608 555.546C494.682 556.539 494.744 557.565 494.546 558.564Z" fill="#FFF9E2" stroke="black" stroke-width="0.5" stroke-miterlimit="10"/>
<path d="M485.451 559.824C480.951 558.718 482.018 560.035 475.612 559.322C469.206 558.609 467.266 556.208 467.067 555.25C466.891 554.4 470.057 554.098 473.456 553.71L473.49 553.772C473.49 553.772 477.331 556.51 482.665 556.641C487.011 556.75 491.612 555.495 494.614 555.546C494.682 556.544 494.744 557.565 494.546 558.569C493.979 561.404 489.95 560.931 485.451 559.824Z" fill="#F9BD87" stroke="black" stroke-width="0.25" stroke-miterlimit="10"/>
<path d="M514.098 428.844C514.098 428.844 512.004 423.688 509.701 423.477C507.397 423.266 500.072 422.108 499.55 423.163C499.028 424.213 499.55 428.006 501.122 429.369C502.694 430.738 512.424 432.945 512.424 432.945L514.098 428.844Z" fill="#FFB27D"/>
<path d="M528.215 502.091L547.149 553.316C547.149 553.316 550.059 553.601 552.845 552.792C555.41 552.05 558.355 550.094 558.355 550.094C558.355 550.094 553.657 500.905 545.044 490.678C536.436 480.446 528.215 502.091 528.215 502.091Z" fill="#263238"/>
<path d="M603.111 481.364C603.111 481.364 548.703 462.873 536.567 466.802C524.43 470.738 487.998 543.603 487.998 543.603C487.998 543.603 488.821 544.704 491.062 545.548C493.15 546.335 498.205 546.284 498.205 546.284C498.205 546.284 531.086 517.953 535.001 509.689C538.916 501.424 540.482 493.553 544.397 494.34C548.312 495.127 594.889 513.618 605.46 502.605C616.03 491.585 613.267 477.275 613.267 477.275L603.111 481.364Z" fill="#494B4F"/>
<path d="M572.091 350.955C574.44 349.608 577.26 349.466 579.235 349.58C578.73 349.055 577.731 348.861 577.731 348.861C578.951 348.679 581.68 349.899 581.68 349.899C598.685 343.312 601.357 368.482 601 374.328C600.648 380.175 600.603 386.905 609.091 392.152C625.795 402.47 611.701 420.483 611.701 420.483C611.571 420.563 603.928 433.584 603.928 433.584C604.359 428.861 582.668 403.925 571.354 396.453C568.602 392.375 567.62 385.177 567.547 384.606C568.023 390.316 568.993 393.521 569.861 395.324C560.278 386.466 565.856 354.514 572.091 350.955Z" fill="#263238"/>
<path d="M572.625 382.639C572.625 382.639 572.909 386.614 572.92 390.362C579.956 390.162 583.672 383.711 585.198 380.135L572.625 382.639Z" fill="#FFF1C5"/>
<path d="M586.497 378.76C586.497 378.76 590.185 372.902 591.071 367.895C591.7 364.318 589.89 351.069 576.642 352.979C576.642 352.979 572.795 353.362 569.181 355.814C566.304 357.765 562.156 361.98 566.798 373.547L568 377.454L586.497 378.76Z" fill="#263238"/>
<path d="M585.947 379.986H585.941C586.56 378.88 586.934 377.579 586.934 376.039C586.946 365.619 589.102 358.632 578.475 358.016C567.847 357.4 565.776 361.375 564.931 364.854C564.085 368.334 565.947 385.85 570.276 386.192C570.276 386.192 571.291 386.209 572.812 386.078C572.869 387.373 572.914 388.884 572.92 390.367C572.931 393.516 572.738 396.499 572.023 396.835C571.967 396.858 577.487 399.744 581.641 398.598C585.544 397.525 588.098 392.438 588.047 392.426C586.39 392.09 585.913 389.808 585.947 379.986Z" fill="#FFF9E2"/>
<path d="M570.895 357.759C570.895 357.759 575.451 369.988 582.447 371.796C589.443 373.604 592.472 371.722 592.472 371.722C592.472 371.722 587.105 367.438 585.993 359.961C585.993 359.961 574.333 351.941 570.895 357.759Z" fill="#263238"/>
<path d="M572.023 358.752C572.023 358.752 568.619 361.484 567.791 364.136C566.962 366.788 566.588 372.252 565.005 372.07C565.005 372.07 561.572 363.759 565.43 359.054C569.515 354.069 572.023 358.752 572.023 358.752Z" fill="#1A2123"/>
<path d="M615.871 481.655C614.975 484.159 612.223 484.803 608.529 484.37C603.661 482.237 582.622 474.046 582.86 468.491C583.212 460.272 586.906 460.009 584.296 449.863C582.202 441.718 601.635 426.569 604.739 423.278C610.572 434.394 610.731 434.919 609.091 441.843C605.959 455.042 618.481 474.371 615.871 481.655Z" fill="#D6CFFF"/>
<path d="M618.255 452.013C624.383 439.778 612.184 408.083 606.306 399.852C601.8 393.538 589.142 392.506 588.115 392.432C588.087 392.42 588.07 392.42 588.053 392.426H588.041C574.089 400.748 572.829 393.829 572.829 393.829C572.824 393.829 560.154 395.518 556.568 401.729C552.12 409.435 547.308 430.96 542.531 435.038C543.263 437.297 542.95 438.495 542.173 441.295C542.009 441.894 541.821 442.465 541.623 443.007C540.902 444.974 540 446.571 539.223 447.957C541.651 449.44 546.338 452.258 549.793 450.233C555.059 447.136 559.167 437.702 561.482 433.949C561.493 433.932 561.499 433.921 561.51 433.909C566.537 462.508 559.7 469.021 563.161 472.038C566.815 475.221 572.035 470.521 583.519 475.523C591.048 478.809 601.5 483.554 608.535 484.381C612.223 484.815 614.981 484.17 615.877 481.666C618.414 474.599 606.674 456.165 608.864 443.024C611.389 444.524 614.885 447.25 618.255 452.013Z" fill="#F9BD87" stroke="black" stroke-width="0.25" stroke-miterlimit="10"/>
<path d="M608.076 442.556L581.346 449.566C580.523 449.132 577.221 447.358 576.188 446.292C576.041 446.138 575.785 446.172 575.672 446.349C575.411 446.765 575.167 447.495 575.904 448.282C573.867 447.866 571.853 447.569 570.996 447.809C568.971 448.374 562.02 452.999 562.996 454.254C563.972 455.509 570.094 453.501 572.909 453.883C575.723 454.266 577.902 455.663 579.933 455.361C581.958 455.058 584.081 454.26 584.081 454.26V454.254C588.438 454.214 616.643 453.872 618.255 452.007C620.002 449.994 608.076 442.556 608.076 442.556Z" fill="#FFF9E2" stroke="black" stroke-width="0.25" stroke-miterlimit="10"/>
<path d="M541.628 461.709H581.346C581.346 459.952 579.927 458.526 578.18 458.526H541.628V461.709Z" fill="#050505"/>
<path d="M541.742 418.23H480.338L495.068 461.709H556.868L541.742 418.23Z" fill="#050505"/>
<path d="M479.431 418.23L494.16 461.709H555.966L540.84 418.23H479.431Z" fill="#494B4F"/>
<path d="M512.538 439.567C512.918 441.227 514.57 442.573 516.221 442.573C517.872 442.573 518.904 441.227 518.524 439.567C518.144 437.908 516.493 436.562 514.842 436.562C513.191 436.556 512.158 437.908 512.538 439.567Z" fill="#F1F1F1"/>
<path d="M657.699 594.754C656.922 594.754 656.258 594.206 656.128 593.459L648.417 549.518L637.324 486.315L634.221 468.645L642.124 468.417L643.498 478.678L653.121 550.773L658.829 593.505C658.908 594.166 658.386 594.754 657.699 594.754Z" fill="#FCDEC3"/>
<path d="M643.492 478.672C638.374 480.942 637.324 486.315 637.324 486.315L634.221 468.645L642.124 468.417L643.492 478.672Z" fill="#F9BD87"/>
<path d="M461.172 594.754C461.949 594.754 462.613 594.206 462.743 593.459L470.454 549.518L481.547 486.315L484.651 468.645L476.747 468.417L475.374 478.678L465.751 550.773L460.043 593.505C459.963 594.166 460.485 594.754 461.172 594.754Z" fill="#FCDEC3"/>
<path d="M475.379 478.672C480.497 480.942 481.547 486.315 481.547 486.315L484.651 468.645L476.747 468.417L475.379 478.672Z" fill="#F9BD87"/>
<path d="M660.888 475.575H462.715C458.919 475.575 455.815 472.455 455.815 468.639C455.815 464.823 458.919 461.703 462.715 461.703H660.888C664.684 461.703 667.788 464.823 667.788 468.639C667.793 472.455 664.684 475.575 660.888 475.575Z" fill="#FCDEC3" stroke="#263238" stroke-width="0.5" stroke-miterlimit="10"/>
</g>
<defs>
<clipPath id="clip0_11120_34646">
<rect width="703" height="616" fill="white"/>
</clipPath>
</defs>
</svg>
