<svg width="150" height="150" viewBox="0 0 150 150" fill="none" xmlns="http://www.w3.org/2000/svg">
<rect width="150" height="150" rx="75" fill="#FFFAE2"/>
<path d="M41.5918 41.5917C47.2293 35.9542 55.7168 35.4792 64.2293 38.1667C67.629 39.2719 70.9038 40.7298 74.0001 42.5167C77.3459 40.6167 80.6251 39.1625 83.771 38.1667C92.2876 35.475 100.771 35.9542 106.408 41.5917C112.046 47.2292 112.525 55.7167 109.833 64.2292C108.728 67.6289 107.27 70.9037 105.483 74C107.383 77.3458 108.838 80.625 109.833 83.7708C112.525 92.2833 112.046 100.771 106.408 106.408C100.771 112.046 92.2835 112.525 83.771 109.833C80.3712 108.728 77.0964 107.27 74.0001 105.483C70.6543 107.383 67.3751 108.837 64.2293 109.833C55.7168 112.521 47.2293 112.042 41.5918 106.408C35.9543 100.771 35.4793 92.2833 38.1668 83.7708C39.1626 80.6208 40.6168 77.3458 42.5168 74C40.73 70.9037 39.272 67.6289 38.1668 64.2292C35.4793 55.7167 35.9584 47.2292 41.5918 41.5917ZM47.7959 81.9542C47.1459 83.361 46.5837 84.8069 46.1126 86.2833C43.8793 93.3542 44.9876 98.0167 47.4876 100.517C49.9834 103.017 54.6459 104.121 61.7168 101.887C63.1057 101.449 64.5501 100.887 66.0501 100.204C62.6202 97.5847 59.3711 94.7366 56.3251 91.6792C53.2663 88.6333 50.4167 85.3842 47.7959 81.9542ZM100.208 81.9542C97.5877 85.3842 94.7381 88.6333 91.6793 91.6792C88.6334 94.738 85.3843 97.5875 81.9543 100.208C83.4515 100.889 84.8946 101.449 86.2834 101.887C93.3584 104.121 98.0168 103.012 100.517 100.517C103.017 98.0167 104.125 93.3583 101.892 86.2833C101.421 84.8055 100.859 83.3582 100.208 81.95V81.9542ZM74.0001 67.75C72.3425 67.75 70.7528 68.4085 69.5807 69.5806C68.4086 70.7527 67.7501 72.3424 67.7501 74C67.7501 75.6576 68.4086 77.2473 69.5807 78.4194C70.7528 79.5915 72.3425 80.25 74.0001 80.25C75.6577 80.25 77.2474 79.5915 78.4195 78.4194C79.5916 77.2473 80.2501 75.6576 80.2501 74C80.2501 72.3424 79.5916 70.7527 78.4195 69.5806C77.2474 68.4085 75.6577 67.75 74.0001 67.75ZM86.2834 46.1125C84.8056 46.5834 83.3584 47.1456 81.9501 47.7958C85.3815 50.4151 88.6319 53.2633 91.6793 56.3208C94.7381 59.3667 97.5877 62.6158 100.208 66.0458C100.892 64.5486 101.452 63.1055 101.888 61.7167C104.125 54.6417 103.017 49.9833 100.517 47.4833C98.0168 44.9833 93.3584 43.8792 86.2834 46.1125ZM47.4834 47.4875C44.9834 49.9833 43.8793 54.6417 46.1126 61.7167C46.5515 63.1055 47.1126 64.55 47.7959 66.05C50.2543 62.8 53.1001 59.5458 56.3251 56.3208C59.3698 53.2636 62.6175 50.4154 66.0459 47.7958C64.6391 47.1458 63.1932 46.5836 61.7168 46.1125C54.6459 43.8792 49.9834 44.9875 47.4834 47.4875Z" fill="#F9BD87"/>
</svg>
