<svg width="492" height="428" viewBox="0 0 492 428" fill="none" xmlns="http://www.w3.org/2000/svg">
<path d="M394.52 346.25C394.52 346.25 446.82 260.75 430.72 163.65C414.52 66.55 336.22 74.85 282.82 59.75C229.42 44.65 201.22 15.85 139.52 36.25C77.92 56.75 55.02 91.75 49.82 145.15C44.62 198.55 50.12 249.35 60.02 297.15C69.92 345.05 86.72 379.95 132.52 383.55C178.22 387.15 193.42 372.45 219.72 386.35C245.92 400.25 348.02 415.85 394.52 346.25Z" fill="#F9BD87"/>
<path d="M119.62 36.55C119.62 36.55 132.42 90.35 132.02 93.15C131.62 96.05 106.02 122.35 101.12 135.15C96.22 147.95 84.62 219.15 77.22 231.95C69.82 244.75 69.82 248.45 82.62 248.45C95.42 248.45 103.62 240.65 103.62 240.65C103.62 240.65 104.82 281.05 107.32 295.85C109.82 310.65 130.42 361.35 132.42 367.95C134.52 374.55 146.42 377.05 154.62 370.85C162.82 364.65 160.82 346.55 160.82 346.55C160.82 346.55 170.32 356.85 177.32 367.55C184.32 378.25 190.12 380.75 197.52 378.25C204.92 375.75 204.92 375.75 204.92 375.75C204.92 375.75 213.62 378.25 217.32 372.45C221.02 366.65 221.12 357.35 220.72 349.95C220.72 349.95 231.52 358.95 230.02 331.15C229.52 321.35 230.22 300.15 233.02 285.95C235.82 271.85 241.32 250.05 243.42 241.55C245.52 232.95 242.52 141.35 236.92 125.85C231.32 110.35 226.02 98.95 224.22 89.75C222.32 80.45 220.42 13.15 220.42 13.15" fill="white"/>
<path d="M119.62 36.55C119.62 36.55 132.42 90.35 132.02 93.15C131.62 96.05 106.02 122.35 101.12 135.15C96.22 147.95 84.62 219.15 77.22 231.95C69.82 244.75 69.82 248.45 82.62 248.45C95.42 248.45 103.62 240.65 103.62 240.65C103.62 240.65 104.82 281.05 107.32 295.85C109.82 310.65 130.42 361.35 132.42 367.95C134.52 374.55 146.42 377.05 154.62 370.85C162.82 364.65 160.82 346.55 160.82 346.55C160.82 346.55 170.32 356.85 177.32 367.55C184.32 378.25 190.12 380.75 197.52 378.25C204.92 375.75 204.92 375.75 204.92 375.75C204.92 375.75 213.62 378.25 217.32 372.45C221.02 366.65 221.12 357.35 220.72 349.95C220.72 349.95 231.52 358.95 230.02 331.15C229.52 321.35 230.22 300.15 233.02 285.95C235.82 271.85 241.32 250.05 243.42 241.55C245.52 232.95 242.52 141.35 236.92 125.85C231.32 110.35 226.02 98.95 224.22 89.75C222.32 80.45 220.42 13.15 220.42 13.15" stroke="#1A2E35" stroke-miterlimit="10"/>
<path d="M155.72 328.55C155.72 328.55 165.12 345.05 167.92 354.15L160.92 346.55L155.72 328.55Z" fill="#1A2E35" stroke="#1A2E35" stroke-miterlimit="10" stroke-linecap="round" stroke-linejoin="round"/>
<path d="M104.52 243.95C104.52 243.95 114.92 237.05 119.52 226.95C124.12 216.85 125.02 198.95 125.02 198.95C125.02 198.95 121.82 210.55 117.52 220.05C113.22 229.55 108.62 238.15 103.72 240.75L104.52 243.95Z" fill="#1A2E35" stroke="#1A2E35" stroke-miterlimit="10" stroke-linecap="round" stroke-linejoin="round"/>
<path d="M269.22 30.15C269.22 30.15 262.62 58.5501 260.52 63.9501C258.42 69.3501 240.72 80.05 238.32 105.55C235.82 131.05 239.92 176.45 239.92 176.45C239.92 176.45 239.52 234.95 236.22 253.85C232.92 272.75 221.42 300.35 219.72 312.35C219.22 315.95 219.02 318.95 219.12 321.45C219.22 325.75 220.52 329.95 223.02 333.35L226.32 337.05C226.32 337.05 225.02 352.75 235.52 356.95C241.42 359.25 245.22 355.95 245.22 355.95C245.22 355.95 247.72 367.45 257.12 365.45C266.62 363.35 283.52 346.55 283.52 346.55C283.52 346.55 284.32 360.15 297.52 356.45C310.72 352.75 318.12 342.85 327.22 326.75C336.32 310.65 348.22 290.05 353.22 276.95C358.12 263.75 366.42 239.05 366.42 239.05C366.42 239.05 379.22 256.35 392.42 255.15C405.62 253.95 387.02 223.45 388.32 210.25C389.62 197.05 387.52 163.25 387.92 151.75C388.32 140.25 373.12 102.75 366.92 94.95C360.72 87.15 357.02 80.95 357.02 80.95L373.92 29.05" fill="white"/>
<path d="M269.22 30.15C269.22 30.15 262.62 58.5501 260.52 63.9501C258.42 69.3501 240.72 80.05 238.32 105.55C235.82 131.05 239.92 176.45 239.92 176.45C239.92 176.45 239.52 234.95 236.22 253.85C232.92 272.75 221.42 300.35 219.72 312.35C219.22 315.95 219.02 318.95 219.12 321.45C219.22 325.75 220.52 329.95 223.02 333.35L226.32 337.05C226.32 337.05 225.02 352.75 235.52 356.95C241.42 359.25 245.22 355.95 245.22 355.95C245.22 355.95 247.72 367.45 257.12 365.45C266.62 363.35 283.52 346.55 283.52 346.55C283.52 346.55 284.32 360.15 297.52 356.45C310.72 352.75 318.12 342.85 327.22 326.75C336.32 310.65 348.22 290.05 353.22 276.95C358.12 263.75 366.42 239.05 366.42 239.05C366.42 239.05 379.22 256.35 392.42 255.15C405.62 253.95 387.02 223.45 388.32 210.25C389.62 197.05 387.52 163.25 387.92 151.75C388.32 140.25 373.12 102.75 366.92 94.95C360.72 87.15 357.02 80.95 357.02 80.95L373.92 29.05" stroke="#1A2E35" stroke-miterlimit="10"/>
<path d="M346.12 186.75C346.12 186.75 346.62 217.25 353.42 228.85C360.22 240.45 364.02 243.85 364.02 243.85L366.32 238.65C352.22 221.35 346.12 186.75 346.12 186.75Z" fill="#1A2E35" stroke="#1A2E35" stroke-miterlimit="10" stroke-linecap="round" stroke-linejoin="round"/>
<path d="M303.52 294.05C297.82 306.25 289.62 323.65 286.42 329.75C281.82 338.55 283.62 346.45 283.62 346.45" stroke="#1A2E35" stroke-miterlimit="10"/>
<path d="M318.12 237.15C318.12 237.15 312.12 275.85 308.92 282.55C308.42 283.65 307.52 285.55 306.42 287.85" stroke="#1A2E35" stroke-miterlimit="10"/>
<path d="M290.32 240.35C290.32 240.35 287.82 259.35 282.62 274.85C277.32 290.35 261.52 315.35 253.72 326.65C246.02 337.95 243.72 351.95 245.42 356.05" stroke="#1A2E35" stroke-miterlimit="10"/>
<path d="M226.42 337.05C225.52 333.35 230.12 328.75 236.42 315.05C242.72 301.35 254.02 282.65 257.52 273.85C261.02 265.05 263.12 243.25 263.12 243.25C263.12 243.25 258.42 244.95 248.52 242.85" stroke="#1A2E35" stroke-miterlimit="10"/>
<path d="M322.12 234.55C322.12 234.55 337.12 221.55 350.12 226.55" stroke="#1A2E35" stroke-miterlimit="10"/>
<path d="M332.42 148.85C332.42 148.85 340.72 155.15 342.72 162.85C344.72 170.55 347.02 201.15 350.02 212.85C353.02 224.55 366.42 239.05 366.42 239.05" stroke="#1A2E35" stroke-miterlimit="10"/>
<path d="M324.72 151.15C324.72 151.15 333.42 156.15 339.02 155.85" stroke="#1A2E35" stroke-miterlimit="10"/>
<path d="M304.62 235.05C308.02 234.35 310.72 233.85 310.72 233.85" stroke="#1A2E35" stroke-miterlimit="10"/>
<path d="M281.12 237.55C281.12 237.55 290.42 238.25 296.12 236.85" stroke="#1A2E35" stroke-miterlimit="10"/>
<path d="M280.62 125.55C281.82 128.15 283.22 130.45 284.72 132.45" stroke="#1A2E35" stroke-miterlimit="10"/>
<path d="M307.42 55.55C307.42 55.55 292.72 56.2501 281.72 67.5501C272.72 76.8501 272.22 103.75 279.12 121.95" stroke="#1A2E35" stroke-miterlimit="10"/>
<path d="M357.02 80.85C357.02 80.85 345.82 63.25 331.82 58.25" stroke="#1A2E35" stroke-miterlimit="10"/>
<path d="M150.72 158.55C150.72 158.55 131.72 175.85 130.42 179.25C129.12 182.55 125.72 195.25 121.12 209.25C116.42 223.25 110.22 235.85 103.62 240.75" stroke="#1A2E35" stroke-miterlimit="10"/>
<path d="M183.72 169.55C169.82 183.95 142.72 186.15 142.72 186.15" stroke="#1A2E35" stroke-miterlimit="10"/>
<path d="M201.42 121.85C201.42 121.85 199.42 147.55 187.12 165.55" stroke="#1A2E35" stroke-miterlimit="10"/>
<path d="M210.12 121.85C210.12 121.85 209.12 131.85 202.42 140.55" stroke="#1A2E35" stroke-miterlimit="10"/>
<path d="M132.02 93.15C132.02 93.15 140.42 82.45 145.02 75.85C149.72 69.15 165.72 68.55 172.72 74.15" stroke="#1A2E35" stroke-miterlimit="10"/>
<path d="M125.12 231.15C125.12 231.15 131.12 232.45 137.12 238.45C143.12 244.45 145.82 248.45 145.82 248.45C145.82 248.45 164.82 246.45 170.82 250.45C176.82 254.45 180.52 265.15 180.52 265.15" stroke="#1A2E35" stroke-miterlimit="10"/>
<path d="M192.72 260.85C192.72 260.85 199.42 260.15 204.02 269.55C208.72 278.85 208.22 279.15 208.22 279.15" stroke="#1A2E35" stroke-miterlimit="10"/>
<path d="M208.72 276.15C208.72 276.15 220.42 275.85 223.72 282.45" stroke="#1A2E35" stroke-miterlimit="10"/>
<path d="M166.12 187.95C157.42 190.65 146.92 192.95 138.12 192.15" stroke="#1A2E35" stroke-miterlimit="10"/>
<path d="M184.12 181.15C184.12 181.15 179.42 183.35 172.62 185.85" stroke="#1A2E35" stroke-miterlimit="10"/>
<path d="M344.12 173.55C344.12 173.55 333.82 177.85 309.82 169.85" stroke="#1A2E35" stroke-miterlimit="10"/>
<path d="M151.02 307.75C152.02 312.35 152.92 316.55 153.42 319.15C155.12 327.85 160.92 346.45 160.92 346.45" stroke="#1A2E35" stroke-miterlimit="10"/>
<path d="M145.72 248.45C145.72 248.45 149.42 264.15 147.72 273.15C146.02 282.15 145.72 284.45 145.72 284.45C145.72 284.45 147.42 291.75 149.22 299.95" stroke="#1A2E35" stroke-miterlimit="10"/>
<path d="M180.72 270.45C180.72 270.45 181.72 285.75 181.42 291.15C181.12 296.45 192.12 319.45 194.12 324.45C196.12 329.45 206.12 352.15 207.12 362.75C208.12 373.45 205.02 375.65 205.02 375.65" stroke="#1A2E35" stroke-miterlimit="10"/>
<path d="M209.42 284.45L207.22 301.75C207.22 301.75 220.52 338.75 220.52 348.85" stroke="#1A2E35" stroke-miterlimit="10"/>
<path d="M212.32 300.85C212.32 300.85 216.42 299.15 220.72 303.75" stroke="#1A2E35" stroke-miterlimit="10"/>
<path d="M333.42 158.15C324.32 128.55 293.62 113.35 265.52 120.05C244.82 125.05 227.72 142.55 226.62 155.15C226.62 155.15 204.42 133.15 169.52 140.85C141.22 147.05 122.42 172.75 126.22 209.05C128.52 231.15 141.42 249.35 157.72 262.95L157.52 263.35C157.52 263.35 169.82 272.35 174.52 276.25C179.12 280.15 181.42 282.95 181.42 282.95C181.42 282.95 201.72 288.05 205.32 290.65C208.92 293.25 208.92 293.25 208.92 293.25C208.92 293.25 221.02 295.85 222.52 300.45C222.52 300.45 243.82 307.05 248.82 321.45C248.82 321.45 248.82 321.35 248.92 321.15C248.92 321.35 248.82 321.45 248.82 321.45C248.82 321.45 275.02 302.95 304.32 261.65C314.92 246.75 316.72 239.45 323.62 233.75C342.62 217.95 339.22 177.05 333.42 158.15Z" fill="#1A2E35"/>
<path d="M249.32 322.95C249.32 323.05 249.42 323.25 249.42 323.35" stroke="#1A2E35" stroke-miterlimit="10" stroke-linecap="round" stroke-linejoin="round"/>
<path d="M249.12 322.25C249.22 322.45 249.32 322.75 249.32 322.95C249.22 322.65 249.12 322.45 249.12 322.25Z" fill="#1A2E35" stroke="#1A2E35" stroke-miterlimit="10" stroke-linecap="round" stroke-linejoin="round"/>
<path d="M248.82 321.55C248.82 321.65 248.92 321.75 248.92 321.95C248.92 321.75 248.92 321.65 248.82 321.55Z" fill="#1A2E35" stroke="#1A2E35" stroke-miterlimit="10" stroke-linecap="round" stroke-linejoin="round"/>
<path d="M249.02 321.95C249.02 322.05 249.12 322.15 249.12 322.25C249.02 322.15 249.02 322.05 249.02 321.95Z" fill="#1A2E35" stroke="#1A2E35" stroke-miterlimit="10" stroke-linecap="round" stroke-linejoin="round"/>
<path d="M249.42 323.35C249.52 323.55 249.52 323.65 249.62 323.85C249.62 323.65 249.52 323.55 249.42 323.35Z" fill="#1A2E35" stroke="#1A2E35" stroke-miterlimit="10" stroke-linecap="round" stroke-linejoin="round"/>
<path d="M250.92 327.55V327.65" stroke="#1A2E35" stroke-miterlimit="10" stroke-linecap="round" stroke-linejoin="round"/>
<path d="M249.62 323.85C249.82 324.35 250.02 324.85 250.12 325.45C250.02 324.95 249.82 324.45 249.62 323.85Z" fill="#1A2E35" stroke="#1A2E35" stroke-miterlimit="10" stroke-linecap="round" stroke-linejoin="round"/>
<path d="M250.92 327.65C251.12 327.95 251.12 328.05 250.92 327.65V327.65Z" fill="#1A2E35" stroke="#1A2E35" stroke-miterlimit="10" stroke-linecap="round" stroke-linejoin="round"/>
<path d="M250.42 326.05C250.62 326.65 250.82 327.25 250.92 327.55C250.82 327.25 250.62 326.75 250.42 326.05Z" fill="#1A2E35" stroke="#1A2E35" stroke-miterlimit="10" stroke-linecap="round" stroke-linejoin="round"/>
<path d="M250.22 325.35C250.32 325.55 250.42 325.75 250.42 325.95C250.32 325.85 250.22 325.65 250.22 325.35Z" fill="#1A2E35" stroke="#1A2E35" stroke-miterlimit="10" stroke-linecap="round" stroke-linejoin="round"/>
<path d="M222.92 150.55C222.92 150.55 200.72 128.55 165.82 136.25C137.52 142.45 118.72 168.15 122.52 204.45C126.32 240.75 158.52 266.55 187.52 278.55C216.52 290.55 237.32 302.55 241.72 308.45C246.12 314.35 245.22 316.95 245.22 316.95C245.22 316.95 272.42 303.45 301.72 262.25C331.02 221.05 338.82 183.05 329.82 153.45C320.82 123.85 290.02 108.65 261.92 115.35C241.12 120.35 224.12 137.95 222.92 150.55Z" fill="#FFDEC2"/>
<path d="M222.92 150.55C222.92 150.55 228.82 154.95 233.42 162.85" stroke="#1A2E35" stroke-miterlimit="10" stroke-linecap="round" stroke-linejoin="round"/>
<path d="M301.62 262.05C330.92 220.75 338.82 183.05 329.72 153.45C327.22 145.25 323.02 138.25 317.72 132.45C318.22 133.55 318.82 134.75 319.32 135.95C332.02 163.55 324.12 197.75 307.52 229.55C290.82 261.35 249.92 299.25 200.52 275.65C160.52 256.55 132.52 222.55 123.22 210.25C129.62 243.45 159.92 267.15 187.32 278.55C216.32 290.55 237.12 302.55 241.52 308.45C245.92 314.35 245.02 316.95 245.02 316.95C245.02 316.95 272.42 303.35 301.62 262.05Z" fill="#F9BD87"/>
<path d="M222.92 150.55C222.92 150.55 200.72 128.55 165.82 136.25C137.52 142.45 118.72 168.15 122.52 204.45C126.32 240.75 158.52 266.55 187.52 278.55C216.52 290.55 237.32 302.55 241.72 308.45C246.12 314.35 245.22 316.95 245.22 316.95C245.22 316.95 272.42 303.45 301.72 262.25C331.02 221.05 338.82 183.05 329.82 153.45C320.82 123.85 290.02 108.65 261.92 115.35C241.12 120.35 224.12 137.95 222.92 150.55Z" stroke="#1A2E35" stroke-miterlimit="10" stroke-linecap="round" stroke-linejoin="round"/>
<path opacity="0.44" d="M245.92 130.95C249.02 133.15 248.02 139.85 243.62 145.95C239.22 151.95 233.22 155.05 230.12 152.75C227.02 150.55 228.02 143.85 232.42 137.75C236.82 131.75 242.82 128.75 245.92 130.95Z" fill="white"/>
<path opacity="0.81" d="M240.22 135.55C242.22 136.95 241.52 141.25 238.72 145.15C235.92 149.05 232.12 150.95 230.12 149.55C228.12 148.15 228.82 143.85 231.62 139.95C234.42 136.05 238.22 134.05 240.22 135.55Z" fill="white"/>
<path opacity="0.44" d="M151.139 171.667C156.575 164.147 157.535 155.56 153.283 152.486C149.031 149.412 141.178 153.015 135.741 160.534C130.305 168.054 129.345 176.641 133.597 179.715C137.849 182.789 145.703 179.186 151.139 171.667Z" fill="white"/>
<path opacity="0.81" d="M145.82 158.05C148.52 160.05 147.92 165.55 144.42 170.35C140.92 175.15 135.92 177.45 133.22 175.45C130.52 173.45 131.12 167.95 134.62 163.15C138.12 158.35 143.12 156.05 145.82 158.05Z" fill="white"/>
</svg>
